ModelForces
version=1
nRows=4
nColumns=155
inDegrees=no

This file contains the forces exerted on a model during a simulation.

A force is a generalized force, meaning that it can be either a force (N) or a torque (Nm).

Units are S.I. units (second, meters, Newtons, ...)
Angles are in degrees.

endheader
time	glut_med1_r	glut_med2_r	glut_med3_r	glut_min1_r	glut_min2_r	glut_min3_r	semimem_r	semiten_r	bifemlh_r	bifemsh_r	sar_r	add_long_r	add_brev_r	add_mag1_r	add_mag2_r	add_mag3_r	tfl_r	pect_r	grac_r	glut_max1_r	glut_max2_r	glut_max3_r	iliacus_r	psoas_r	quad_fem_r	gem_r	peri_r	rect_fem_r	vas_med_r	vas_int_r	vas_lat_r	med_gas_r	lat_gas_r	soleus_r	tib_post_r	flex_dig_r	flex_hal_r	tib_ant_r	per_brev_r	per_long_r	per_tert_r	ext_dig_r	ext_hal_r	glut_med1_l	glut_med2_l	glut_med3_l	glut_min1_l	glut_min2_l	glut_min3_l	semimem_l	semiten_l	bifemlh_l	bifemsh_l	sar_l	add_long_l	add_brev_l	add_mag1_l	add_mag2_l	add_mag3_l	tfl_l	pect_l	grac_l	glut_max1_l	glut_max2_l	glut_max3_l	iliacus_l	psoas_l	quad_fem_l	gem_l	peri_l	rect_fem_l	vas_med_l	vas_int_l	vas_lat_l	med_gas_l	lat_gas_l	soleus_l	tib_post_l	flex_dig_l	flex_hal_l	tib_ant_l	per_brev_l	per_long_l	per_tert_l	ext_dig_l	ext_hal_l	ercspn_r	ercspn_l	intobl_r	intobl_l	extobl_r	extobl_l	femur_lat_meniscii_r.femur_lat_r.force.X	femur_lat_meniscii_r.femur_lat_r.force.Y	femur_lat_meniscii_r.femur_lat_r.force.Z	femur_lat_meniscii_r.femur_lat_r.torque.X	femur_lat_meniscii_r.femur_lat_r.torque.Y	femur_lat_meniscii_r.femur_lat_r.torque.Z	femur_lat_meniscii_r.meniscus_lat_r.force.X	femur_lat_meniscii_r.meniscus_lat_r.force.Y	femur_lat_meniscii_r.meniscus_lat_r.force.Z	femur_lat_meniscii_r.meniscus_lat_r.torque.X	femur_lat_meniscii_r.meniscus_lat_r.torque.Y	femur_lat_meniscii_r.meniscus_lat_r.torque.Z	femur_med_meniscii_r.femur_med_r.force.X	femur_med_meniscii_r.femur_med_r.force.Y	femur_med_meniscii_r.femur_med_r.force.Z	femur_med_meniscii_r.femur_med_r.torque.X	femur_med_meniscii_r.femur_med_r.torque.Y	femur_med_meniscii_r.femur_med_r.torque.Z	femur_med_meniscii_r.meniscus_med_r.force.X	femur_med_meniscii_r.meniscus_med_r.force.Y	femur_med_meniscii_r.meniscus_med_r.force.Z	femur_med_meniscii_r.meniscus_med_r.torque.X	femur_med_meniscii_r.meniscus_med_r.torque.Y	femur_med_meniscii_r.meniscus_med_r.torque.Z	femur_med_tibia_r.tibia_upper_r.force.X	femur_med_tibia_r.tibia_upper_r.force.Y	femur_med_tibia_r.tibia_upper_r.force.Z	femur_med_tibia_r.tibia_upper_r.torque.X	femur_med_tibia_r.tibia_upper_r.torque.Y	femur_med_tibia_r.tibia_upper_r.torque.Z	femur_med_tibia_r.femur_med_r.force.X	femur_med_tibia_r.femur_med_r.force.Y	femur_med_tibia_r.femur_med_r.force.Z	femur_med_tibia_r.femur_med_r.torque.X	femur_med_tibia_r.femur_med_r.torque.Y	femur_med_tibia_r.femur_med_r.torque.Z	femur_lat_tibia_r.tibia_upper_r.force.X	femur_lat_tibia_r.tibia_upper_r.force.Y	femur_lat_tibia_r.tibia_upper_r.force.Z	femur_lat_tibia_r.tibia_upper_r.torque.X	femur_lat_tibia_r.tibia_upper_r.torque.Y	femur_lat_tibia_r.tibia_upper_r.torque.Z	femur_lat_tibia_r.femur_lat_r.force.X	femur_lat_tibia_r.femur_lat_r.force.Y	femur_lat_tibia_r.femur_lat_r.force.Z	femur_lat_tibia_r.femur_lat_r.torque.X	femur_lat_tibia_r.femur_lat_r.torque.Y	femur_lat_tibia_r.femur_lat_r.torque.Z	aACL_R	pACL_R	aPCL_R	pPCL_R	aMCL_R	mMCL_R	pMCL_R	aLCL_R	mLCL_R	pLCL_R	aPCL_L	pPCL_L	aMCL_L	aLCL_L
      0.13644978	     12.76853466	      9.55325975	     10.29110097	      4.38696430	      5.06398824	      5.58887612	     96.21998211	    160.68687796	    247.47911290	    384.45597200	    123.12385689	      9.52242717	      6.80073753	      0.00000000	      4.17343190	      7.10419138	      4.57229211	      3.70635105	     95.40900710	      6.17233010	      9.39239102	      7.07237304	     29.77993220	     21.07591130	      6.04925829	      4.02481356	      6.28529311	     40.95900775	     26.20200407	     32.66275212	     48.96895702	      0.00000000	      0.00000000	      0.00000000	      0.00000000	      0.00000000	      0.00000000	     30.51090875	      0.48921558	      0.00000000	     14.57891870	     22.93924234	      6.51484074	     12.76853466	      9.55325975	     10.29110097	      4.38696430	      5.06398824	      5.58887612	      0.00000000	      7.13690674	     13.81671955	     12.04255655	      2.50159072	      9.52242717	      6.80073753	      0.00000000	      4.17343190	      7.10419138	      6.01974188	      3.70635105	      2.58826588	      6.17233010	      9.39239102	      7.07237304	     29.77993220	     21.07591130	      6.04925829	      4.02481356	      6.28529311	     19.76553255	      0.00000000	      0.00000000	      0.00000000	     21.11810520	     10.13489696	     55.98652175	     54.26041079	      6.09837990	      5.44104609	     15.14055755	      8.18885602	     20.09890368	      3.25694911	     10.75278880	      3.41346362	     41.30500840	     41.30500840	     15.50346174	     15.50346174	     32.68394570	     32.68394570	     -6.80914873	     38.62243918	      5.53812695	     -3.17713831	     -0.14542793	     -2.95862463	      6.80914873	    -38.62243918	     -5.53812695	      1.14355226	      0.05738327	      1.07233881	      5.33459193	     12.37142806	     -0.18409583	      0.31591128	     -0.10260304	      2.06757830	     -5.33459193	    -12.37142806	      0.18409583	     -0.21165185	      0.09181584	      0.22866344	    -38.10996379	   -538.45471901	    103.15972339	    -10.42361622	      2.95876954	     11.87974039	     38.10996379	    538.45471901	   -103.15972339	     51.68059613	     -1.08054738	     13.16530152	     46.01950524	   -587.43099187	   -127.17513658	     18.39582534	     -1.75311246	     14.83841730	    -46.01950524	    587.43099187	    127.17513658	    -65.89820839	     -0.56494043	    -21.32034516	     92.87285180	     23.22717279	      0.00000000	      0.00000000	      0.00000000	      0.00000000	      0.00000000	      0.00000000	      0.00000000	      0.00000000	      0.00000000	      0.00000000	      0.00000001	      0.00000000
      0.13728496	     12.73799123	      9.51033089	     10.24434849	      4.36802590	      5.04319219	      5.56291359	     94.82233786	    160.04403257	    244.75853930	    381.98897252	    122.81985978	      9.47916408	      6.77164910	      0.00000000	      4.15463592	      7.06981184	      4.57253977	      3.69025233	     95.03542444	      6.14444813	      9.34987420	      7.03991398	     29.70032017	     20.98511377	      6.02261714	      4.01165297	      6.29799259	     41.19988035	     33.10207363	     27.81487688	     48.66251197	      0.00000000	      0.00000000	      0.00000000	      0.00000000	      0.00000000	      0.00000000	     30.75992395	      0.51076851	      0.00000000	      0.00000000	     23.25686283	      6.60308513	     12.73799123	      9.51033089	     10.24434849	      4.36802590	      5.04319219	      5.56291359	      0.00000000	      7.10302586	     13.76949568	     11.98939630	      2.49084125	      9.47916408	      6.77164910	      0.00000000	      4.15463592	      7.06981184	      5.99878409	      3.69025233	      2.57695213	      6.14444813	      9.34987420	      7.03991398	     29.70032017	     20.98511377	      6.02261714	      4.01165297	      6.29799259	     19.66962438	      0.00000000	      0.00000000	      0.00000000	     21.15753202	     10.14441184	     55.85676470	     54.15436604	      6.07249048	      5.41732861	     15.08009444	      8.15189945	     20.04070415	      3.24298068	     10.67994237	      3.38747173	     41.12630659	     41.12630659	     15.43135452	     15.43135452	     32.61815015	     32.61815015	     -6.77817136	     38.95626020	      5.49509768	     -3.16592279	     -0.14432000	     -2.95094931	      6.77817136	    -38.95626020	     -5.49509768	      1.14892238	      0.05642510	      1.08610207	      5.41950635	     12.12857472	     -0.24000351	      0.33403311	     -0.10407323	      2.10346627	     -5.41950635	    -12.12857472	      0.24000351	     -0.20904609	      0.09424490	      0.22218397	    -38.24106554	   -532.19227809	    103.05191131	    -10.29627432	      2.97445976	     11.81769002	     38.24106554	    532.19227809	   -103.05191131	     51.49044051	     -1.08905398	     13.20569066	     45.15681555	   -585.97221854	   -125.19882603	     18.26372590	     -1.75655436	     14.89261444	    -45.15681555	    585.97221854	    125.19882603	    -65.02305245	     -0.53751941	    -21.02077724	     90.39085769	     20.79678104	      0.00000000	      0.00000000	      0.00000000	      0.00000000	      0.00000000	      0.00000000	      0.00000000	      0.00000000	      0.00000000	      0.00000000	      0.00000001	      0.00000000
      0.13787016	     12.71575834	      9.48054032	     10.21190411	      4.35488233	      5.02876078	      5.54487039	     93.82920952	    159.59890368	    242.93305484	    380.63708430	    122.65299148	      9.44914254	      6.75146063	      0.00000000	      4.14157512	      7.04594754	      4.57206624	      3.67907736	     94.80469969	      6.12510013	      9.32037131	      7.01739044	     29.64508351	     20.92211514	      6.00412604	      4.00252188	      6.30597945	     41.46424354	     26.28102530	     34.57202171	     48.90797805	      0.00000000	      0.00000000	      0.00000000	      0.00000000	      0.00000000	      0.00000000	     30.95117574	      0.52395875	      0.00000000	     16.01700113	     23.48289906	      6.66793953	     12.71575834	      9.48054032	     10.21190411	      4.35488233	      5.02876078	      5.54487039	      0.00000000	      7.07951507	     13.73621740	     11.95250478	      2.48338083	      9.44914254	      6.75146063	      0.00000000	      4.14157512	      7.04594754	      5.98422978	      3.67907736	      2.56910049	      6.12510013	      9.32037131	      7.01739044	     29.64508351	     20.92211514	      6.00412604	      4.00252188	      6.30597945	     19.60295458	      0.00000000	      0.00000000	      0.00000000	     21.18296129	     10.15020682	     55.76429710	     54.08023714	      6.05488340	      5.40130473	     15.03772911	      8.12612424	     19.99984980	      3.23328832	     10.62909991	      3.36942981	     41.00228535	     41.00228535	     15.38131771	     15.38131771	     32.57250224	     32.57250224	     -6.94346935	     39.36670868	      5.57606219	     -3.20877062	     -0.14822147	     -3.02515926	      6.94346935	    -39.36670868	     -5.57606219	      1.16098312	      0.05878866	      1.10658772	      5.40873469	     11.94669020	     -0.28660993	      0.34921938	     -0.10405459	      2.09970809	     -5.40873469	    -11.94669020	      0.28660993	     -0.20685826	      0.09523375	      0.21917056	    -37.56271107	   -529.78808996	    103.13309732	    -10.23847294	      2.97865018	     11.84376037	     37.56271107	    529.78808996	   -103.13309732	     51.45469982	     -1.08320050	     12.90464680	     46.21010314	   -586.05045218	   -124.24507422	     18.21231297	     -1.72892033	     15.01519757	    -46.21010314	    586.05045218	    124.24507422	    -64.61403872	     -0.55199485	    -21.51442630	     88.00266438	     18.50818321	      0.00000000	      0.00000000	      0.00000000	      0.00000000	      0.00000000	      0.00000000	      0.00000000	      0.00000000	      0.00000000	      0.00000000	      0.00000001	      0.00000000
      0.13845536	     12.69288469	      9.45098582	     10.17971658	      4.34184191	      5.01444376	      5.52694967	     92.78798970	    159.09998203	    241.06877507	    379.19444729	    122.45882631	      9.41935968	      6.73143010	      0.00000000	      4.12860481	      7.02226722	      4.56970471	      3.66798869	     94.54909926	      6.10590609	      9.29110361	      6.99504658	     29.59029284	     20.85962425	      5.98577896	      3.99346457	      6.31324272	     41.65665470	     31.57283534	     35.02159809	     48.52928995	      0.00000000	      0.00000000	      0.00000000	      0.00000000	      0.00000000	      0.00000000	     31.13227618	      0.53580386	      0.00000000	     19.43545923	     23.71626974	      6.73331438	     12.69288469	      9.45098582	     10.17971658	      4.34184191	      5.01444376	      5.52694967	      0.00000000	      7.05619133	     13.70279735	     11.91590488	      2.47597886	      9.41935968	      6.73143010	      0.00000000	      4.12860481	      7.02226722	      5.96978244	      3.66798869	      2.56131071	      6.10590609	      9.29110361	      6.99504658	     29.59029284	     20.85962425	      5.98577896	      3.99346457	      6.31324272	     19.53672259	      0.00000000	      0.00000000	      0.00000000	     21.20663214	     10.15530400	     55.67059723	     54.00626390	      6.03769372	      5.38574513	     14.99537724	      8.10045047	     19.95894312	      3.22367363	     10.57846499	      3.35153743	     40.87923799	     40.87923799	     15.33167913	     15.33167913	     32.52722496	     32.52722496	     -6.99700271	     39.49582537	      5.62231809	     -3.23050708	     -0.14955363	     -3.05204518	      6.99700271	    -39.49582537	     -5.62231809	      1.16457553	      0.05895398	      1.11743023	      5.46253511	     11.58672682	     -0.23873364	      0.32200942	     -0.10575127	      2.12458648	     -5.46253511	    -11.58672682	      0.23873364	     -0.19921233	      0.09593915	      0.20894722	    -38.07338046	   -526.98257872	    103.31596802	    -10.18319834	      2.99836754	     11.81902806	     38.07338046	    526.98257872	   -103.31596802	     51.45956921	     -1.09418147	     13.10455255	     46.33336728	   -584.47791034	   -123.36315625	     18.12462564	     -1.72306883	     15.06541709	    -46.33336728	    584.47791034	    123.36315625	    -64.20069346	     -0.54829433	    -21.60949232	     86.26308313	     16.88658411	      0.00000000	      0.00000000	      0.00000000	      0.00000000	      0.00000000	      0.00000000	      0.00000000	      0.00000000	      0.00000000	      0.00000000	      0.00000001	      0.00000000
